<svg version="1.1" preserveAspectRatio="none" xmlns="http://www.w3.org/2000/svg" width="500" height="500" viewBox="0 0 500 500"><rect width="100%" height="100%" fill="#1E1F22" fill-opacity="1"/><svg viewBox="61.7594 476.1 471.0525 137" width="333" height="96.8490773321445" x="83.5px" y="201.5755px" xmlns="http://www.w3.org/2000/svg" xmlns:xlink="http://www.w3.org/1999/xlink" preserveAspectRatio="none"><defs></defs><style>.companyName {fill:#EBE7D9;fill-opacity:1;}.icon3 {fill:#F55139;fill-opacity:1;}.icon3-str {stroke:#F55139;stroke-opacity:1;}</style><g opacity="1" transform="rotate(0 61.7594 586.1)">
<svg width="158.1623" height="27" x="61.7594" y="586.1" version="1.1" preserveAspectRatio="none" viewBox="1.28 -29.68 219.32 37.44">
  <g transform="matrix(1 0 0 1 0 0)" class="icon3"><path id="id-6izo4zJp8" d="M39.96-28L43.76-28L34.40 0L30.20 0L22.56-22.36L14.92 0L10.64 0L1.28-28L5.40-28L12.96-5.24L20.84-28L24.52-28L32.24-5.12L39.96-28Z M56.76 0.24Q53.60 0.24 51.08-1.16Q48.56-2.56 47.14-5.02Q45.72-7.48 45.72-10.60L45.72-10.60Q45.72-13.72 47.14-16.18Q48.56-18.64 51.08-20.02Q53.60-21.40 56.76-21.40L56.76-21.40Q59.92-21.40 62.42-20.02Q64.92-18.64 66.34-16.18Q67.76-13.72 67.76-10.60L67.76-10.60Q67.76-7.48 66.34-5.02Q64.92-2.56 62.42-1.16Q59.92 0.24 56.76 0.24L56.76 0.24ZM56.76-3.12Q58.80-3.12 60.42-4.06Q62.04-5 62.96-6.70Q63.88-8.40 63.88-10.60L63.88-10.60Q63.88-12.80 62.96-14.50Q62.04-16.20 60.42-17.12Q58.80-18.04 56.76-18.04L56.76-18.04Q54.72-18.04 53.10-17.12Q51.48-16.20 50.54-14.50Q49.60-12.80 49.60-10.60L49.60-10.60Q49.60-8.40 50.54-6.70Q51.48-5 53.10-4.06Q54.72-3.12 56.76-3.12L56.76-3.12Z M77.96-17.64Q78.96-19.48 80.92-20.44Q82.88-21.40 85.68-21.40L85.68-21.40L85.68-17.68Q85.36-17.72 84.80-17.72L84.80-17.72Q81.68-17.72 79.90-15.86Q78.12-14 78.12-10.56L78.12-10.56L78.12 0L74.28 0L74.28-21.20L77.96-21.20L77.96-17.64Z M107.80 0L99.84-9.88L95.44-5.80L95.44 0L91.60 0L91.60-29.68L95.44-29.68L95.44-10.64L107-21.20L111.64-21.20L102.72-12.44L112.52 0L107.80 0Z M126.16 0.32Q123 0.32 120.06-0.66Q117.12-1.64 115.44-3.20L115.44-3.20L116.92-6.32Q118.52-4.88 121.02-3.98Q123.52-3.08 126.16-3.08L126.16-3.08Q129.64-3.08 131.36-4.26Q133.08-5.44 133.08-7.40L133.08-7.40Q133.08-8.84 132.14-9.74Q131.20-10.64 129.82-11.12Q128.44-11.60 125.92-12.20L125.92-12.20Q122.76-12.96 120.82-13.72Q118.88-14.48 117.50-16.06Q116.12-17.64 116.12-20.32L116.12-20.32Q116.12-22.56 117.30-24.36Q118.48-26.16 120.88-27.24Q123.28-28.32 126.84-28.32L126.84-28.32Q129.32-28.32 131.72-27.68Q134.12-27.04 135.84-25.84L135.84-25.84L134.52-22.64Q132.76-23.76 130.76-24.34Q128.76-24.92 126.84-24.92L126.84-24.92Q123.44-24.92 121.74-23.68Q120.04-22.44 120.04-20.48L120.04-20.48Q120.04-19.04 121-18.14Q121.96-17.24 123.38-16.74Q124.80-16.24 127.24-15.68L127.24-15.68Q130.40-14.92 132.32-14.16Q134.24-13.40 135.62-11.84Q137-10.28 137-7.64L137-7.64Q137-5.44 135.80-3.62Q134.60-1.80 132.16-0.74Q129.72 0.32 126.16 0.32L126.16 0.32Z M154.80-21.40Q158.84-21.40 161.22-19.06Q163.60-16.72 163.60-12.20L163.60-12.20L163.60 0L159.76 0L159.76-11.76Q159.76-14.84 158.28-16.40Q156.80-17.96 154.04-17.96L154.04-17.96Q150.92-17.96 149.12-16.14Q147.32-14.32 147.32-10.92L147.32-10.92L147.32 0L143.48 0L143.48-29.68L147.32-29.68L147.32-18.20Q148.52-19.72 150.46-20.56Q152.40-21.40 154.80-21.40L154.80-21.40Z M181.12 0.24Q177.96 0.24 175.44-1.16Q172.92-2.56 171.50-5.02Q170.08-7.48 170.08-10.60L170.08-10.60Q170.08-13.72 171.50-16.18Q172.92-18.64 175.44-20.02Q177.96-21.40 181.12-21.40L181.12-21.40Q184.28-21.40 186.78-20.02Q189.28-18.64 190.70-16.18Q192.12-13.72 192.12-10.60L192.12-10.60Q192.12-7.48 190.70-5.02Q189.28-2.56 186.78-1.16Q184.28 0.24 181.12 0.24L181.12 0.24ZM181.12-3.12Q183.16-3.12 184.78-4.06Q186.40-5 187.32-6.70Q188.24-8.40 188.24-10.60L188.24-10.60Q188.24-12.80 187.32-14.50Q186.40-16.20 184.78-17.12Q183.16-18.04 181.12-18.04L181.12-18.04Q179.08-18.04 177.46-17.12Q175.84-16.20 174.90-14.50Q173.96-12.80 173.96-10.60L173.96-10.60Q173.96-8.40 174.90-6.70Q175.84-5 177.46-4.06Q179.08-3.12 181.12-3.12L181.12-3.12Z M209.88-21.40Q212.96-21.40 215.40-20.04Q217.84-18.68 219.22-16.24Q220.60-13.80 220.60-10.60L220.60-10.60Q220.60-7.40 219.22-4.94Q217.84-2.48 215.40-1.12Q212.96 0.24 209.88 0.24L209.88 0.24Q207.60 0.24 205.70-0.64Q203.80-1.52 202.48-3.20L202.48-3.20L202.48 7.76L198.64 7.76L198.64-21.20L202.32-21.20L202.32-17.84Q203.60-19.60 205.56-20.50Q207.52-21.40 209.88-21.40L209.88-21.40ZM209.56-3.12Q211.60-3.12 213.22-4.06Q214.84-5 215.78-6.70Q216.72-8.40 216.72-10.60L216.72-10.60Q216.72-12.80 215.78-14.50Q214.84-16.20 213.22-17.12Q211.60-18.04 209.56-18.04L209.56-18.04Q207.56-18.04 205.94-17.10Q204.32-16.16 203.38-14.48Q202.44-12.80 202.44-10.60L202.44-10.60Q202.44-8.40 203.36-6.70Q204.28-5 205.92-4.06Q207.56-3.12 209.56-3.12L209.56-3.12Z"/></g>
</svg>
</g><g opacity="1" transform="rotate(0 174.3037 476.1)">
<svg width="358.5082" height="90" x="174.3037" y="476.1" version="1.1" preserveAspectRatio="none" viewBox="-2.52 -28.48 115.36 28.96">
  <g transform="matrix(1 0 0 1 0 0)" class="companyName"><path id="id-D6z1nYkh4" d="M22.40 0L21.08-6L8.04-6L4.40 0L-2.52 0L15.60-28L22-28L28.88 0L22.40 0ZM11.04-10.92L20-10.92L17.64-21.72L11.04-10.92Z M59.76-19.32Q59.76-15.40 57.64-12.60Q55.52-9.80 51.76-8.64L51.76-8.64L56.64 0L49.80 0L45.40-7.84L39.88-7.84L38.32 0L31.80 0L37.40-28L48.80-28Q54-28 56.88-25.72Q59.76-23.44 59.76-19.32L59.76-19.32ZM46.40-13Q49.64-13 51.42-14.48Q53.20-15.96 53.20-18.72L53.20-18.72Q53.20-20.72 51.84-21.72Q50.48-22.72 47.96-22.72L47.96-22.72L42.84-22.72L40.88-13L46.40-13Z M86.88-22.80L72.20-22.80L71-16.72L84-16.72L83-11.68L69.96-11.68L68.68-5.20L83.96-5.20L82.88 0L61.20 0L66.80-28L87.96-28L86.88-22.80Z M97.80 0.48Q94.48 0.48 91.44-0.40Q88.40-1.28 86.56-2.64L86.56-2.64L89.20-7.64Q91.12-6.24 93.52-5.48Q95.92-4.72 98.44-4.72L98.44-4.72Q101.12-4.72 102.68-5.60Q104.24-6.48 104.24-8L104.24-8Q104.24-9.24 103.00-9.90Q101.76-10.56 99.04-11.32L99.04-11.32Q96.32-12.12 94.60-12.86Q92.88-13.60 91.62-15.08Q90.36-16.56 90.36-19L90.36-19Q90.36-21.84 91.94-24Q93.52-26.16 96.42-27.32Q99.32-28.48 103.16-28.48L103.16-28.48Q106.00-28.48 108.52-27.86Q111.04-27.24 112.84-26.08L112.84-26.08L110.40-21.12Q108.84-22.20 106.88-22.74Q104.92-23.28 102.80-23.28L102.80-23.28Q100.04-23.28 98.44-22.32Q96.84-21.36 96.84-19.84L96.84-19.84Q96.84-18.92 97.52-18.30Q98.20-17.68 99.24-17.30Q100.28-16.92 102.16-16.40L102.16-16.40Q104.84-15.68 106.56-14.94Q108.28-14.20 109.50-12.78Q110.72-11.36 110.72-9.04L110.72-9.04Q110.72-6.16 109.12-4.02Q107.52-1.88 104.60-0.70Q101.68 0.48 97.80 0.48L97.80 0.48Z"/></g>
</svg>
</g><g opacity="1" transform="rotate(0 61.7594 476.1)">
<svg width="112.5443" height="90" x="61.7594" y="476.1" version="1.1" preserveAspectRatio="none" viewBox="-4.6 -33.68 47.12 37.68">
  <g transform="matrix(1 0 0 1 0 0)" class="icon3"><path id="id-hTdFi603-2" d="M-4.60 4L15.88-33.68L24.12-33.68L3.64 4L-4.60 4Z M13.80 4L34.28-33.68L42.52-33.68L22.04 4L13.80 4Z"/></g>
</svg>
</g></svg></svg>